<svg width="96" height="95" viewBox="0 0 96 95" fill="none" xmlns="http://www.w3.org/2000/svg">
<path d="M74.4808 38.25L62.638 22.7293C61.2404 20.964 60.799 18.6101 61.3875 16.4034L64.3298 5.0755C64.624 3.97213 63.8149 2.94232 62.7115 2.94232C53.5904 2.94232 46.2346 10.151 45.7933 19.125V32.3654C45.7933 35.7491 42.9245 38.4707 39.5409 38.25C36.3779 38.0293 34.024 35.3077 34.024 32.1447V28.1726C34.024 26.0394 31.3024 25.1567 30.0519 26.8486L21.5192 38.25C17.4 43.7668 14.899 50.6813 14.899 58.1106C14.899 76.4265 29.6841 91.2116 48 91.2116C66.3159 91.2116 81.101 76.4265 81.101 58.1106C81.101 50.6813 78.6 43.7668 74.4808 38.25Z" fill="white"/>
<path d="M64.1827 42.6635V64.7308C64.1827 68.7765 60.8726 72.0866 56.8269 72.0866H37.7019C33.6562 72.0866 30.3462 75.3967 30.3462 79.4423V86.1361C35.4216 89.3726 41.5269 91.2116 48 91.2116C66.3159 91.2116 81.101 76.4265 81.101 58.1106C81.101 50.6813 78.6 43.7668 74.4808 38.25L72.274 35.3077H71.5385C67.4928 35.3077 64.1827 38.6178 64.1827 42.6635Z" fill="#FF4500"/>
<path d="M36.9663 55.9039C32.9207 55.9039 29.6106 52.5938 29.6106 48.5481C29.6106 44.5024 32.9207 41.1923 36.9663 41.1923C41.012 41.1923 44.3221 44.5024 44.3221 48.5481C44.3221 52.5938 41.012 55.9039 36.9663 55.9039ZM36.9663 45.6058C35.3481 45.6058 34.024 46.9298 34.024 48.5481C34.024 50.1664 35.3481 51.4904 36.9663 51.4904C38.5846 51.4904 39.9087 50.1664 39.9087 48.5481C39.9087 46.9298 38.5846 45.6058 36.9663 45.6058Z" fill="#4B5259"/>
<path d="M59.0337 75.0289C54.988 75.0289 51.6779 71.7188 51.6779 67.6731C51.6779 63.6274 54.988 60.3173 59.0337 60.3173C63.0793 60.3173 66.3894 63.6274 66.3894 67.6731C66.3894 71.7188 63.0793 75.0289 59.0337 75.0289ZM59.0337 64.7308C57.4154 64.7308 56.0913 66.0548 56.0913 67.6731C56.0913 69.2914 57.4154 70.6154 59.0337 70.6154C60.6519 70.6154 61.976 69.2914 61.976 67.6731C61.976 66.0548 60.6519 64.7308 59.0337 64.7308Z" fill="#4B5259"/>
<path d="M35.1274 74.4404C34.6125 74.4404 34.0976 74.2197 33.6562 73.8519C32.7736 73.0428 32.7 71.6452 33.5091 70.7625L59.2543 42.5899C60.0635 41.7072 61.4611 41.6337 62.3437 42.4428C63.2264 43.2519 63.3 44.6495 62.4909 45.5322L36.7457 73.7048C36.3043 74.1462 35.7159 74.4404 35.1274 74.4404Z" fill="#4B5259"/>
<path d="M76.2462 36.926L64.4034 21.3317C63.4471 20.0813 63.1529 18.463 63.5207 16.9183L66.463 5.5904C66.7572 4.41348 66.5365 3.163 65.801 2.20675C65.0654 1.2505 63.962 0.735596 62.7115 0.735596C52.4135 0.735596 44.0279 8.75338 43.5865 19.0515V19.125V26.4808C43.5865 27.7313 44.5428 28.6875 45.7933 28.6875C47.0438 28.6875 48 27.7313 48 26.4808V19.1986C48.3678 11.5486 54.4731 5.51685 61.976 5.22261L59.1808 15.8885C58.4452 18.7572 59.0337 21.6995 60.799 24.0534L72.6418 39.5741C76.6875 44.9438 78.8207 51.3433 78.8207 58.1106C78.8207 75.176 64.9918 89.0048 47.9264 89.0048C30.8611 89.0048 17.0322 75.176 17.0322 58.1106C17.0322 53.1087 18.2827 48.1068 20.6365 43.6933C21.225 42.5899 20.7837 41.2659 19.7538 40.6774C18.6505 40.089 17.3264 40.5303 16.738 41.5601C14.0899 46.6356 12.6923 52.3731 12.6923 58.1106C12.6923 77.6034 28.5072 93.4183 48 93.4183C67.4928 93.4183 83.3077 77.6034 83.3077 58.1106C83.3077 50.387 80.8803 43.1048 76.2462 36.926Z" fill="#4B5259"/>
<path d="M26.8154 33.3952C26.374 33.3952 25.8591 33.2481 25.4913 32.9538C24.5351 32.2183 24.3144 30.8207 25.05 29.8644L28.2865 25.5245C29.0221 24.5683 30.4197 24.3476 31.376 25.0832C32.3322 25.8187 32.5529 27.2163 31.8173 28.1726L28.5808 32.5125C28.1394 33.101 27.4774 33.3952 26.8154 33.3952Z" fill="#4B5259"/>
</svg>
