<svg width="96" height="95" viewBox="0 0 96 95" fill="none" xmlns="http://www.w3.org/2000/svg">
<path d="M92.1346 2.94232H11.2212V91.2116H92.1346V2.94232Z" fill="#F8FAFB"/>
<path d="M83.8226 19.0515C84.0432 17.8745 85.2202 17.0654 86.3971 17.2861C87.574 17.5068 88.3832 18.6837 88.1625 19.8606L85.3673 33.8366C83.8961 41.0452 77.5702 46.2678 70.2144 46.2678H25.7856C24.5351 46.2678 23.5788 45.3116 23.5788 44.0611C23.5788 42.8106 24.5351 41.8543 25.7856 41.8543L83.8226 19.0515Z" fill="#BEC6CC"/>
<path d="M88.0889 0.735596H14.5312C11.5889 0.735596 9.01442 2.86877 8.42596 5.73752L3.12981 32.2183C2.68846 34.5721 3.27692 37.0731 4.82163 38.912C6.36635 40.751 8.64663 41.8543 11.074 41.8543H70.2144C75.437 41.8543 79.9976 38.1029 81.0274 32.9539L86.3236 6.62021C86.4707 5.73752 87.2798 5.14906 88.0889 5.14906C89.1188 5.14906 89.9279 5.95819 89.9279 6.988V39.7212C89.9279 40.9717 90.8841 41.9279 92.1346 41.9279C93.3851 41.9279 94.3413 40.9717 94.3413 39.7212V6.988C94.3413 3.53079 91.5462 0.735596 88.0889 0.735596Z" fill="#FF4500"/>
<path d="M42.6303 28.9818C39.3938 28.9818 37.187 26.1866 35.201 23.7592C34.2447 22.5087 32.7736 20.7433 31.8909 20.5226C31.3024 21.0375 30.2726 22.5087 29.3899 23.7592C28.7279 24.6419 27.9923 25.6717 27.1832 26.7015C26.4476 27.6577 25.05 27.8048 24.0938 27.0693C23.1375 26.3337 22.9904 24.9361 23.726 23.9798C24.4615 23.0236 25.1971 21.9938 25.8591 21.1111C28.1394 18.0217 29.3164 16.3298 31.1553 16.1092C34.4654 15.6678 36.6721 18.463 38.6582 20.964C39.9822 22.5822 41.6741 24.6419 42.7774 24.5683C43.5866 24.4947 44.6164 23.4649 45.6462 22.5087C47.2644 20.964 49.324 18.9779 52.1928 19.2721C53.0019 19.3457 53.8111 19.5664 54.6202 20.0077C55.7236 20.5226 56.1649 21.8467 55.65 22.95C55.1351 24.0534 53.8111 24.4947 52.7077 23.9798C52.3399 23.8327 52.0457 23.6856 51.825 23.6856C51.0159 23.612 49.9125 24.6419 48.8091 25.7452C47.338 27.1428 45.7197 28.7611 43.3659 28.9818C43.0716 28.9818 42.851 28.9818 42.6303 28.9818Z" fill="white"/>
<path d="M25.9327 91.2115V52.9615H62.7115V91.2115" fill="white"/>
<path d="M92.1346 50.7548C90.8841 50.7548 89.9279 51.7111 89.9279 52.9616V89.0048H64.9183V52.9616C64.9183 51.7111 63.962 50.7548 62.7115 50.7548H25.9327C24.6822 50.7548 23.726 51.7111 23.726 52.9616V89.0048H3.86538C2.6149 89.0048 1.65865 89.9611 1.65865 91.2115C1.65865 92.462 2.6149 93.4183 3.86538 93.4183H25.9327C27.1832 93.4183 28.1394 92.462 28.1394 91.2115V55.1683H42.1154V91.2115C42.1154 92.462 43.0716 93.4183 44.3221 93.4183C45.5726 93.4183 46.5288 92.462 46.5288 91.2115V55.1683H60.5048V91.2115C60.5048 92.462 61.461 93.4183 62.7115 93.4183H92.1346C93.3851 93.4183 94.3413 92.462 94.3413 91.2115V52.9616C94.3413 51.7111 93.3851 50.7548 92.1346 50.7548Z" fill="#4B5259"/>
<path d="M61.2404 28.6875C62.4591 28.6875 63.4471 27.6995 63.4471 26.4808C63.4471 25.262 62.4591 24.274 61.2404 24.274C60.0216 24.274 59.0337 25.262 59.0337 26.4808C59.0337 27.6995 60.0216 28.6875 61.2404 28.6875Z" fill="white"/>
</svg>
