<svg width="96" height="95" viewBox="0 0 96 95" fill="none" xmlns="http://www.w3.org/2000/svg">
<path d="M77.4231 2.94232L70.0673 10.2981L62.7116 2.94232L55.3558 10.2981L48 2.94232L40.6443 10.2981L33.2885 2.94232L25.9327 10.2981L18.577 2.94232V90.476L25.9327 83.1202L33.2885 90.476L40.6443 83.1202L48 90.476L55.3558 83.1202L62.7116 90.476L70.0673 83.1202L77.4231 90.476V2.94232Z" fill="white"/>
<path d="M29.6106 33.101C25.5649 33.101 21.8135 34.2043 18.577 36.0433V74.2933C21.8135 76.2058 25.5649 77.2356 29.6106 77.2356C41.8212 77.2356 51.6779 67.3789 51.6779 55.1683C51.6779 42.9577 41.8212 33.101 29.6106 33.101Z" fill="#BEC6CC"/>
<path d="M18.577 21.8467C17.3265 21.8467 16.3702 20.8904 16.3702 19.6399V2.94233C16.3702 1.69185 17.3265 0.735596 18.577 0.735596C19.8275 0.735596 20.7837 1.69185 20.7837 2.94233V19.6399C20.7837 20.8904 19.8275 21.8467 18.577 21.8467ZM77.4231 92.6827C76.8347 92.6827 76.3198 92.462 75.8784 92.0207L70.0674 86.2096L64.2563 92.0207C63.3736 92.9034 61.976 92.9034 61.1669 92.0207L55.3558 86.2096L49.5448 92.0207C48.6621 92.9034 47.2645 92.9034 46.4553 92.0207L40.6443 86.2096L34.8332 92.0207C33.9505 92.9034 32.5529 92.9034 31.7438 92.0207L25.9327 86.2096L20.1217 92.0207C19.4597 92.6827 18.577 92.8298 17.6943 92.5356C16.8852 92.1678 16.2967 91.3587 16.2967 90.476V68.6293C16.2967 67.3789 17.2529 66.4226 18.5034 66.4226C19.7539 66.4226 20.7102 67.3789 20.7102 68.6293V85.1798L24.3145 81.5755C25.1972 80.6928 26.5948 80.6928 27.4039 81.5755L33.215 87.3866L39.026 81.5755C39.9087 80.6928 41.3063 80.6928 42.1154 81.5755L47.9265 87.3866L53.7376 81.5755C54.6203 80.6928 56.0178 80.6928 56.827 81.5755L62.638 87.3866L68.4491 81.5755C69.3318 80.6928 70.7294 80.6928 71.5385 81.5755L75.1428 85.1798V8.23848L71.5385 11.8428C70.6558 12.7255 69.2582 12.7255 68.4491 11.8428L62.7116 6.03175L56.9005 11.8428C56.0178 12.7255 54.6203 12.7255 53.8111 11.8428L48.0001 6.03175L42.189 11.8428C41.3063 12.7255 39.9087 12.7255 39.0996 11.8428L31.7438 4.48704C30.8611 3.60435 30.8611 2.20675 31.7438 1.39761C32.6265 0.514923 34.0241 0.514923 34.8332 1.39761L40.6443 7.20867L46.4553 1.39761C47.338 0.514923 48.7356 0.514923 49.5448 1.39761L55.3558 7.20867L61.1669 1.39761C62.0496 0.514923 63.4472 0.514923 64.2563 1.39761L70.0674 7.20867L75.8784 1.39761C76.5404 0.735596 77.4231 0.58848 78.3058 0.882711C79.115 1.2505 79.7034 2.05963 79.7034 2.94233V90.476C79.7034 91.3587 79.1885 92.1678 78.3058 92.5356C78.0116 92.6092 77.7174 92.6827 77.4231 92.6827Z" fill="#4B5259"/>
<path d="M25.9327 25.7452C23.0348 25.7452 20.1653 26.316 17.4879 27.425C14.8106 28.534 12.3779 30.1594 10.3288 32.2086C8.27964 34.2577 6.65418 36.6904 5.54519 39.3677C4.43621 42.0451 3.86542 44.9146 3.86542 47.8125C3.86542 50.7104 4.43621 53.58 5.54519 56.2573C6.65418 58.9346 8.27964 61.3673 10.3288 63.4165C12.3779 65.4656 14.8106 67.0911 17.4879 68.2001C20.1653 69.309 23.0348 69.8798 25.9327 69.8798C28.8306 69.8798 31.7002 69.309 34.3775 68.2001C37.0548 67.0911 39.4875 65.4656 41.5367 63.4165C43.5858 61.3673 45.2113 58.9346 46.3203 56.2573C47.4292 53.58 48 50.7104 48 47.8125C48 44.9146 47.4292 42.0451 46.3203 39.3677C45.2113 36.6904 43.5858 34.2577 41.5367 32.2086C39.4875 30.1594 37.0548 28.534 34.3775 27.425C31.7002 26.316 28.8306 25.7452 25.9327 25.7452Z" fill="white"/>
<path d="M25.9327 72.0866C12.5452 72.0866 1.65869 61.2 1.65869 47.8125C1.65869 34.425 12.5452 23.5385 25.9327 23.5385C39.3202 23.5385 50.2068 34.425 50.2068 47.8125C50.2068 61.2 39.3202 72.0866 25.9327 72.0866ZM25.9327 27.9519C14.9726 27.9519 6.07215 36.8524 6.07215 47.8125C6.07215 58.7726 14.9726 67.6731 25.9327 67.6731C36.8928 67.6731 45.7933 58.7726 45.7933 47.8125C45.7933 36.8524 36.8928 27.9519 25.9327 27.9519Z" fill="#4B5259"/>
<path d="M66.3894 27.9519H48C46.7495 27.9519 45.7933 26.9957 45.7933 25.7452C45.7933 24.4947 46.7495 23.5385 48 23.5385H66.3894C67.6399 23.5385 68.5962 24.4947 68.5962 25.7452C68.5962 26.9957 67.6399 27.9519 66.3894 27.9519ZM66.3894 38.9856H55.3558C54.1053 38.9856 53.1491 38.0293 53.1491 36.7789C53.1491 35.5284 54.1053 34.5721 55.3558 34.5721H66.3894C67.6399 34.5721 68.5962 35.5284 68.5962 36.7789C68.5962 38.0293 67.6399 38.9856 66.3894 38.9856ZM66.3894 50.0192H57.5625C56.312 50.0192 55.3558 49.063 55.3558 47.8125C55.3558 46.562 56.312 45.6058 57.5625 45.6058H66.3894C67.6399 45.6058 68.5962 46.562 68.5962 47.8125C68.5962 49.063 67.6399 50.0192 66.3894 50.0192ZM66.3894 61.0529H50.9423C49.6918 61.0529 48.7356 60.0967 48.7356 58.8462C48.7356 57.5957 49.6918 56.6394 50.9423 56.6394H66.3894C67.6399 56.6394 68.5962 57.5957 68.5962 58.8462C68.5962 60.0967 67.6399 61.0529 66.3894 61.0529ZM59.0337 72.0866H43.5866C42.3361 72.0866 41.3798 71.1303 41.3798 69.8798C41.3798 68.6293 42.3361 67.6731 43.5866 67.6731H59.0337C60.2841 67.6731 61.2404 68.6293 61.2404 69.8798C61.2404 71.1303 60.2841 72.0866 59.0337 72.0866ZM66.3894 72.0866C65.801 72.0866 65.2125 71.8659 64.8447 71.4245C64.4034 71.0567 64.1827 70.4683 64.1827 69.8798C64.1827 69.2914 64.4034 68.7029 64.8447 68.3351C65.6539 67.526 67.125 67.526 67.9341 68.3351C68.0077 68.4087 68.1548 68.5558 68.2284 68.7029C68.3019 68.85 68.3755 68.9236 68.4491 69.0707C68.5226 69.2178 68.5226 69.3649 68.5962 69.512C68.5962 69.6592 68.6697 69.8063 68.6697 69.9534C68.6697 70.5418 68.4491 71.1303 68.0077 71.4981C67.9341 71.5717 67.787 71.7188 67.6399 71.7923C67.4928 71.8659 67.4192 71.9394 67.2721 72.013C67.125 72.0866 66.9779 72.0866 66.8308 72.1601C66.6837 72.0866 66.5366 72.0866 66.3894 72.0866Z" fill="#BEC6CC"/>
<path d="M24.4615 55.9039C23.726 55.9039 23.1375 55.5361 22.6961 55.0212L17.9149 48.7688C17.1793 47.8125 17.4 46.4149 18.3562 45.6793C19.3125 44.9438 20.7101 45.1644 21.4457 46.1207L24.4615 50.1664L31.5966 41.2659C32.3322 40.3096 33.7298 40.1625 34.6861 40.8981C35.6423 41.6337 35.7894 43.0313 35.0538 43.9875L26.1534 55.0947C25.7856 55.6096 25.1235 55.9039 24.4615 55.9039Z" fill="#FF4500"/>
</svg>
