<svg width="96" height="95" viewBox="0 0 96 95" fill="none" xmlns="http://www.w3.org/2000/svg">
<path d="M78.8942 2.94232V44.1346C78.8942 48.1803 75.5841 51.4904 71.5385 51.4904H39.1731C35.1274 51.4904 31.8173 48.1803 31.8173 44.1346V2.94232H78.8942Z" fill="#FF4500"/>
<path d="M71.5385 2.94232H39.1731V36.7789C43.2188 36.7789 46.5289 40.089 46.5289 44.1346H64.1827C64.1827 40.089 67.4928 36.7789 71.5385 36.7789V2.94232Z" fill="#FFECE6"/>
<path d="M71.5385 53.6971H39.1731C33.8769 53.6971 29.6106 49.4308 29.6106 44.1346V5.14905C29.6106 3.89857 30.5668 2.94232 31.8173 2.94232C33.0678 2.94232 34.0241 3.89857 34.0241 5.14905V44.1346C34.0241 47.0034 36.3043 49.2837 39.1731 49.2837H71.5385C74.4072 49.2837 76.6875 47.0034 76.6875 44.1346V5.14905C76.6875 3.89857 77.6438 2.94232 78.8942 2.94232C80.1447 2.94232 81.101 3.89857 81.101 5.14905V44.1346C81.101 49.4308 76.8346 53.6971 71.5385 53.6971Z" fill="#4B5259"/>
<path d="M55.3558 3.67789C52.4295 3.67789 49.623 4.84036 47.5538 6.90957C45.4846 8.97878 44.3221 11.7852 44.3221 14.7115C44.3221 17.6378 45.4846 20.4443 47.5538 22.5135C49.623 24.5827 52.4295 25.7452 55.3558 25.7452C58.2821 25.7452 61.0885 24.5827 63.1577 22.5135C65.227 20.4443 66.3894 17.6378 66.3894 14.7115C66.3894 11.7852 65.227 8.97878 63.1577 6.90957C61.0885 4.84036 58.2821 3.67789 55.3558 3.67789ZM13.6486 84.2971C14.9726 84.2971 16.076 83.1938 16.076 81.8697V60.7587C16.076 59.3611 14.899 58.2577 13.5014 58.2577H7.76395V84.3707H13.6486V84.2971Z" fill="white"/>
<path d="M83.0135 64.8779L58.5188 74.514C59.0337 73.7048 59.3279 72.7486 59.2544 71.7923C59.0337 69.512 57.0476 67.8938 54.7673 67.8938H42.851C38.2904 61.3471 25.9327 61.3471 25.9327 61.3471H16.076V81.0606L39.3938 88.3428C39.3938 88.3428 46.3818 90.4024 51.5308 88.3428C55.7971 86.5774 81.1745 73.4842 86.6178 70.6154C87.6476 70.1005 89.1188 68.4822 88.3096 66.5697C87.5741 64.9515 86.3236 63.9217 83.0135 64.8779Z" fill="#EFD5BE"/>
<path d="M54.8409 78.6332H37.7019C36.4515 78.6332 35.4952 77.6769 35.4952 76.4265C35.4952 75.176 36.4515 74.2197 37.7019 74.2197H54.8409C56.0178 74.2197 56.9741 73.2635 56.9741 72.0866C56.9741 70.8361 57.9303 69.8798 59.1808 69.8798C60.4313 69.8798 61.3875 70.8361 61.3875 72.0866C61.3875 75.7644 58.4452 78.6332 54.8409 78.6332Z" fill="#4B5259"/>
<path d="M90.2957 65.687C89.413 63.5538 87.3534 61.3471 82.425 62.7447C82.3514 62.7447 82.2779 62.8183 82.2043 62.8183L64.6976 70.0269C63.5942 70.4683 63.0058 71.7923 63.5207 72.8957C63.962 73.999 65.2861 74.5875 66.3894 74.0726L83.749 66.9375C85.8087 66.349 86.0293 66.8639 86.25 67.3788C86.4707 67.9673 85.588 68.5558 85.588 68.5558C79.4827 71.7923 54.8409 84.5178 50.7216 86.2096C46.3817 87.975 40.1293 86.136 40.1293 86.136L18.2827 79.4423V63.4803H25.9327C29.0221 63.4803 37.849 64.5101 41.012 69.0707C41.4534 69.6591 42.1154 70.0269 42.851 70.0269H54.6202C55.7971 70.0269 56.8269 70.9096 56.974 71.9394C57.0476 72.5279 56.8269 72.9692 56.6063 73.2634C56.2385 73.8519 56.0914 74.5875 56.3856 75.3231C56.6798 75.9851 57.1947 76.5 57.9303 76.6471C58.8865 76.8678 59.8428 76.4264 60.3577 75.6173C61.1668 74.3668 61.5346 72.9692 61.3875 71.5716C61.0933 68.2615 58.151 65.6134 54.6938 65.6134H43.9543C38.4375 59.1404 26.5212 59.0668 25.9327 59.0668H17.9885C17.3264 57.2279 15.5611 55.9774 13.5014 55.9774H9.97068C8.7202 55.9774 7.76395 56.9336 7.76395 58.1841C7.76395 59.4346 8.7202 60.3908 9.97068 60.3908H13.5014C13.7221 60.3908 13.8692 60.538 13.8692 60.6851V61.2735V80.987V84.2235C13.8692 85.474 14.8255 86.4303 16.076 86.4303C17.3264 86.4303 18.2827 85.474 18.2827 84.2235V84.0029L38.7317 90.4024C38.9524 90.4759 42.1889 91.4322 46.0139 91.4322C48.0736 91.4322 50.2803 91.138 52.2664 90.3288C56.6798 88.5634 82.0572 75.3966 87.5005 72.5279C89.7808 71.3509 91.4726 68.5558 90.2957 65.687ZM9.97068 86.5038C9.38222 86.5038 8.79375 86.2832 8.42597 85.8418C8.05818 85.4005 7.76395 84.8856 7.76395 84.2971C7.76395 84.15 7.76395 84.0029 7.8375 83.8558C7.91106 83.7086 7.91106 83.5615 7.98462 83.4144C8.05818 83.2673 8.13173 83.1202 8.20529 83.0466C8.27885 82.8995 8.35241 82.8259 8.49952 82.6788C9.01443 82.1639 9.75 81.9433 10.4856 82.0904C10.6327 82.0904 10.7798 82.1639 10.9269 82.2375C11.074 82.311 11.2212 82.3846 11.2947 82.4582C11.4418 82.5317 11.5154 82.6053 11.6625 82.7524C11.7361 82.8259 11.8832 82.9731 11.9567 83.1202C12.0303 83.2673 12.1039 83.3408 12.1774 83.488C12.251 83.6351 12.251 83.7822 12.3245 83.9293C12.3245 84.0764 12.3245 84.2235 12.3245 84.3707C12.3245 84.9591 12.1039 85.5476 11.6625 85.9154C11.5889 85.9889 11.4418 86.136 11.2947 86.2096C11.1476 86.2832 11.074 86.3567 10.9269 86.4303C10.7798 86.5038 10.6327 86.5038 10.4856 86.5774C10.3385 86.6509 10.1178 86.5038 9.97068 86.5038Z" fill="#4B5259"/>
</svg>
